<?xml version="1.0" encoding="utf-8"?>
<!-- Generator: Adobe Illustrator 22.1.0, SVG Export Plug-In . SVG Version: 6.00 Build 0)  -->
<svg version="1.1" id="Layer_1" xmlns="http://www.w3.org/2000/svg" xmlns:xlink="http://www.w3.org/1999/xlink" x="0px" y="0px"
	 viewBox="0 0 1400 1000" style="enable-background:new 0 0 1400 1000;" xml:space="preserve">
<style type="text/css">
	.st0{fill:#2DAFE2;}
	.st1{fill:#006AAC;}
	.st2{opacity:0.46;fill:#0A80BC;}
	.st3{opacity:0.46;fill:#1192D3;}
	.st4{opacity:0.46;fill:#34B7EA;}
	.st5{fill:#FFFFFF;}
	.st6{fill:#0C5E91;}
	.st7{fill:#004374;}
	.st8{fill:#005A87;}
	.st9{fill:#001E45;}
	.st10{fill:#FF7F00;}
	.st11{fill:#FFC200;}
	.st12{fill:#FF6700;}
	.st13{fill:#FFAA00;}
	.st14{fill:#FFCC3B;}
	.st15{fill:#FFD671;}
</style>
<g>
	<rect class="st0" width="1400" height="1000"/>
	<g>
		<path class="st1" d="M1210.3,637.5c1.4-14.8,2-29.8,2-45c0-269.9-218.8-488.7-488.7-488.7S235.1,322.6,235.1,592.5
			c0,15.2,0.7,30.1,2,45H1210.3z"/>
		<circle class="st2" cx="489.8" cy="275.2" r="192.9"/>
		<circle class="st3" cx="489.8" cy="275.2" r="145.4"/>
		<circle class="st4" cx="489.8" cy="275.2" r="102.8"/>
		<circle class="st5" cx="489.8" cy="275.2" r="62.9"/>
		<g>
			<path class="st6" d="M1222.8,636.6c0,0-255.6-354.9-331.9-354.9c-79.5,0-350.2,355.6-350.2,355.6L1222.8,636.6z"/>
			<path class="st7" d="M802.2,637.1l415.9-0.5l1.7-4.3c-27.8-38.2-235.4-320.5-317.1-348.4c-0.6,0.6-1.1,1.2-1.6,1.9
				c0,0-88.6,116-57,120.1s69.2-7.1,64.1,10.2C905.3,425.8,850,539.4,802.2,637.1z"/>
			<path class="st8" d="M779.7,636.8c0,0-196.4-272.6-254.9-272.6c-61.1,0-269,273.2-269,273.2L779.7,636.8z"/>
			<path class="st7" d="M455.5,637.1l291.5-0.3l1.6-42.1c-56.3-74.5-173.3-222.5-220.1-230.2c-20.7,21.9-95.1,103.2-68.1,107.9
				c31.2,5.4,86.2-1.4,78,15.6C533.6,497.9,490.6,574.6,455.5,637.1z"/>
		</g>
		<path class="st9" d="M423.3,596.6c-19.9-11.6-36.3-28.4-49.6-46.5c19.3,2.7,35.9,2.6,35.9,2.6c-16.8-9.7-30.5-23.9-41.7-39.1
			c14.4,1.9,26.5,1.8,26.5,1.8c-15.1-8.7-27.1-22-36.5-36c15.2,2.6,29.5,2.5,29.5,2.5c-22.9-13.3-37.9-38.6-46.5-58.3
			c-0.8-1.9-1.6-3.8-2.4-5.6c-0.2-0.6-0.5-1.2-0.7-1.8c0,0,0,0,0,0l-3.1,7.3c-8.7,19.7-23.6,45-46.5,58.3c0,0,14.3,0.1,29.5-2.5
			c-9.4,14-21.4,27.2-36.5,36c0,0,12.1,0.1,26.5-1.8c-11.2,15.3-25,29.4-41.7,39.1c0,0,16.7,0.1,35.9-2.6
			c-13.3,18.2-29.7,35-49.6,46.5c0,0,19.7,0.1,42.6-3c-10.9,16.1-23.5,31.6-37.9,45.3h161.5c-14.4-13.7-27-29.3-37.9-45.3
			C403.5,596.8,423.3,596.6,423.3,596.6z"/>
		<path class="st9" d="M505.7,599.3c-18.7-10.8-34.1-26.6-46.5-43.6c18.1,2.5,33.7,2.4,33.7,2.4c-15.7-9.1-28.7-22.4-39.1-36.7
			c13.5,1.7,24.9,1.7,24.9,1.7c-14.1-8.2-25.4-20.6-34.2-33.7c14.2,2.4,27.6,2.3,27.6,2.3c-21.5-12.5-35.5-36.2-43.7-54.7
			c-0.8-1.8-1.5-3.5-2.2-5.2c-0.2-0.6-0.4-1.1-0.7-1.7c0,0,0,0,0,0l-2.9,6.9c-8.1,18.5-22.1,42.2-43.7,54.7c0,0,13.4,0.1,27.6-2.3
			c-8.8,13.1-20.1,25.5-34.2,33.7c0,0,11.4,0.1,24.9-1.7c-10.5,14.3-23.4,27.6-39.1,36.7c0,0,15.6,0.1,33.7-2.4
			c-12.5,17-27.9,32.8-46.5,43.6c0,0,18.5,0.1,40-2.9c-10.2,15.1-22,29.7-35.6,42.5h151.5c-13.5-12.9-25.3-27.5-35.6-42.5
			C487.2,599.4,505.7,599.3,505.7,599.3z"/>
		<path class="st9" d="M633.5,589.7c-23.2-13.5-42.3-33-57.8-54.2c22.5,3.1,41.9,3,41.9,3c-19.5-11.3-35.6-27.8-48.6-45.6
			c16.8,2.2,30.9,2.1,30.9,2.1c-17.5-10.2-31.5-25.6-42.5-41.9c17.7,3,34.3,2.9,34.3,2.9c-26.7-15.5-44.1-45-54.2-68
			c-1-2.2-1.9-4.4-2.7-6.5c-0.3-0.7-0.6-1.4-0.8-2.1c0,0,0,0,0,0l-3.6,8.6c-10.1,22.9-27.5,52.4-54.2,67.9c0,0,16.7,0.1,34.3-2.9
			c-10.9,16.3-24.9,31.7-42.5,41.9c0,0,14.1,0.1,30.9-2.1c-13,17.8-29.1,34.3-48.6,45.6c0,0,19.4,0.1,41.9-3
			c-15.5,21.2-34.6,40.8-57.8,54.2c0,0,23,0.1,49.6-3.5c-12.7,18.7-27.4,36.8-44.2,52.8H628c-16.8-16-31.5-34.1-44.2-52.8
			C610.5,589.8,633.5,589.7,633.5,589.7z"/>
		<circle class="st2" cx="446" cy="610.8" r="105.5"/>
		<circle class="st3" cx="446" cy="610.8" r="75.4"/>
		<circle class="st4" cx="446" cy="610.8" r="47.7"/>
		<path class="st9" d="M1011.4,583.2c-25.5-14.8-46.5-36.3-63.5-59.6c24.7,3.4,46,3.3,46,3.3c-21.5-12.4-39.1-30.6-53.4-50.1
			c18.5,2.4,34,2.3,34,2.3c-19.3-11.2-34.7-28.2-46.7-46.1c19.4,3.3,37.7,3.2,37.7,3.2c-29.4-17-48.5-49.5-59.6-74.7
			c-1.1-2.5-2.1-4.8-3-7.1c-0.3-0.8-0.6-1.5-0.9-2.3c0,0,0,0,0,0l-3.9,9.4c-11.1,25.2-30.2,57.6-59.6,74.7c0,0,18.3,0.1,37.7-3.2
			c-12,17.9-27.4,34.9-46.7,46.1c0,0,15.5,0.1,34-2.3c-14.3,19.6-32,37.7-53.4,50.1c0,0,21.4,0.1,46-3.3c-17,23.3-38,44.8-63.5,59.6
			c0,0,25.3,0.2,54.6-3.9c-14,20.6-30.1,40.5-48.6,58.1h206.9c-18.5-17.6-34.6-37.5-48.6-58.1
			C986.1,583.4,1011.4,583.2,1011.4,583.2z"/>
		<path class="st9" d="M1115,595.1c-19.9-11.6-36.3-28.4-49.6-46.5c19.3,2.7,35.9,2.6,35.9,2.6c-16.8-9.7-30.5-23.9-41.7-39.1
			c14.4,1.9,26.5,1.8,26.5,1.8c-15.1-8.7-27.1-22-36.5-36c15.2,2.6,29.5,2.5,29.5,2.5c-22.9-13.3-37.9-38.6-46.5-58.3
			c-0.8-1.9-1.6-3.8-2.4-5.6c-0.2-0.6-0.5-1.2-0.7-1.8c0,0,0,0,0,0l-3.1,7.3c-8.7,19.7-23.6,45-46.5,58.3c0,0,14.3,0.1,29.5-2.5
			c-9.4,14-21.4,27.2-36.5,36c0,0,12.1,0.1,26.5-1.8c-11.2,15.3-25,29.4-41.7,39.1c0,0,16.7,0.1,35.9-2.6
			c-13.3,18.2-29.7,35-49.6,46.5c0,0,19.7,0.1,42.6-3c-10.9,16.1-23.5,31.6-37.9,45.3h161.5c-14.4-13.7-27-29.3-37.9-45.3
			C1095.3,595.2,1115,595.1,1115,595.1z"/>
		<path class="st9" d="M1238,593.9c-20.5-11.9-37.4-29.2-51-47.9c19.8,2.8,37,2.7,37,2.7c-17.2-10-31.4-24.6-42.9-40.3
			c14.8,1.9,27.3,1.8,27.3,1.8c-15.5-9-27.9-22.6-37.5-37c15.6,2.7,30.3,2.6,30.3,2.6c-23.6-13.7-39-39.7-47.9-60
			c-0.9-2-1.7-3.9-2.4-5.7c-0.2-0.6-0.5-1.2-0.7-1.8c0,0,0,0,0,0l-3.2,7.6c-8.9,20.3-24.3,46.3-47.9,60c0,0,14.7,0.1,30.3-2.6
			c-9.7,14.4-22,28-37.5,37c0,0,12.5,0.1,27.3-1.8c-11.5,15.7-25.7,30.3-42.9,40.3c0,0,17.2,0.1,37-2.7c-13.7,18.7-30.5,36-51,47.9
			c0,0,20.3,0.1,43.8-3.1c-11.2,16.5-24.2,32.5-39,46.7h166.2c-14.8-14.1-27.8-30.1-39-46.7C1217.7,594,1238,593.9,1238,593.9z"/>
		<path class="st7" d="M1222.8,637.2H224.6c-20.5,0-37.3,16.8-37.3,37.3v0c0,20.5,16.8,37.3,37.3,37.3h998.2
			c20.5,0,37.3-16.8,37.3-37.3v0C1260.2,654,1243.4,637.2,1222.8,637.2z"/>
		<g>
			<path class="st1" d="M977.7,814.8L977.7,814.8c0-8.2,6.7-14.9,14.9-14.9H844.4H668.6H535.8c8.2,0,14.9,6.7,14.9,14.9l0,0
				c0,8.2-6.7,14.9-14.9,14.9h132.8h175.7h148.3C984.4,829.8,977.7,823.1,977.7,814.8z"/>
			<path class="st1" d="M917,888H542.2c-8.2,0-14.9,6.7-14.9,14.9l0,0c0,8.2,6.7,14.9,14.9,14.9H917c8.2,0,14.9-6.7,14.9-14.9l0,0
				C932,894.8,925.3,888,917,888z"/>
			<path class="st1" d="M1095.5,829.3H402.4c-8.2,0-14.9,6.7-14.9,14.9l0,0c0,8.2,6.7,14.9,14.9,14.9h693.2
				c8.2,0,14.9-6.7,14.9-14.9l0,0C1110.5,836,1103.8,829.3,1095.5,829.3z"/>
			<path class="st1" d="M828.2,873.2L828.2,873.2c0-8.2,6.7-14.9,14.9-14.9h-69.8h28.3H626.9c8.2,0,14.9,6.7,14.9,14.9v0
				c0,8.2-6.7,14.9-14.9,14.9h174.8h-28.3h69.8C834.9,888.1,828.2,881.4,828.2,873.2z"/>
			<path class="st1" d="M1123.5,711.8H340.9c-8.2,0-14.9,6.7-14.9,14.9l0,0c0,8.2,6.7,14.9,14.9,14.9h782.6
				c8.2,0,14.9-6.7,14.9-14.9l0,0C1138.5,718.5,1131.8,711.8,1123.5,711.8z"/>
			<path class="st1" d="M1050.4,770.6h-648c-8.2,0-14.9,6.7-14.9,14.9v0c0,8.2,6.7,14.9,14.9,14.9h648c8.2,0,14.9-6.7,14.9-14.9v0
				C1065.3,777.3,1058.6,770.6,1050.4,770.6z"/>
			<path class="st1" d="M899.3,756.4L899.3,756.4c0-8.2,6.7-14.9,14.9-14.9h-69.8H668.6h-69.8c8.2,0,14.9,6.7,14.9,14.9v0
				c0,8.2-6.7,14.9-14.9,14.9h69.8h175.7h69.8C906,771.3,899.3,764.6,899.3,756.4z"/>
			<path class="st1" d="M1192.6,711.8h-16.2c-8.2,0-14.9,6.7-14.9,14.9l0,0c0,8.2,6.7,14.9,14.9,14.9h16.2c8.2,0,14.9-6.7,14.9-14.9
				l0,0C1207.5,718.5,1200.8,711.8,1192.6,711.8z"/>
			<path class="st1" d="M493.1,888.7h-77.8c-8.2,0-14.9,6.7-14.9,14.9v0c0,8.2,6.7,14.9,14.9,14.9h77.8c8.2,0,14.9-6.7,14.9-14.9v0
				C508.1,895.4,501.3,888.7,493.1,888.7z"/>
			<path class="st0" d="M937.8,799.2h-45.6c-8,0-14.5,6.5-14.5,14.5v0c0,8,6.5,14.5,14.5,14.5h45.6c8,0,14.5-6.5,14.5-14.5v0
				C952.3,805.7,945.8,799.2,937.8,799.2z"/>
			<path class="st0" d="M820.8,799.2h-21.6c-8,0-14.5,6.5-14.5,14.5v0c0,8,6.5,14.5,14.5,14.5h21.6c8,0,14.5-6.5,14.5-14.5v0
				C835.3,805.7,828.8,799.2,820.8,799.2z"/>
			<path class="st0" d="M692.3,857.2h-10.3c-8,0-14.5,6.5-14.5,14.5v0c0,8,6.5,14.5,14.5,14.5h10.3c8,0,14.5-6.5,14.5-14.5v0
				C706.9,863.8,700.3,857.2,692.3,857.2z"/>
			<path class="st0" d="M680.9,741.7h-10.3c-8,0-14.5,6.5-14.5,14.5v0c0,8,6.5,14.5,14.5,14.5h10.3c8,0,14.5-6.5,14.5-14.5v0
				C695.4,748.3,688.9,741.7,680.9,741.7z"/>
			<path class="st1" d="M291.7,711.8h-36.9c-8.2,0-14.9,6.7-14.9,14.9l0,0c0,8.2,6.7,14.9,14.9,14.9h36.9c8.2,0,14.9-6.7,14.9-14.9
				l0,0C306.7,718.5,299.9,711.8,291.7,711.8z"/>
			<path class="st1" d="M361.7,828.8h-14.9c-8.2,0-14.9,6.7-14.9,14.9v0c0,8.2,6.7,14.9,14.9,14.9h14.9c8.2,0,14.9-6.7,14.9-14.9v0
				C376.6,835.5,369.9,828.8,361.7,828.8z"/>
			<path class="st1" d="M350.2,770.8h-1.5c-8.2,0-14.9,6.7-14.9,14.9l0,0c0,8.2,6.7,14.9,14.9,14.9h1.5c8.2,0,14.9-6.7,14.9-14.9
				l0,0C365.1,777.6,358.4,770.8,350.2,770.8z"/>
			<path class="st1" d="M300.5,771.2H299c-8.2,0-14.9,6.7-14.9,14.9l0,0c0,8.2,6.7,14.9,14.9,14.9h1.5c8.2,0,14.9-6.7,14.9-14.9l0,0
				C315.4,777.9,308.7,771.2,300.5,771.2z"/>
			<path class="st1" d="M1147.5,829.6h-1.5c-8.2,0-14.9,6.7-14.9,14.9v0c0,8.2,6.7,14.9,14.9,14.9h1.5c8.2,0,14.9-6.7,14.9-14.9v0
				C1162.5,836.4,1155.8,829.6,1147.5,829.6z"/>
			<path class="st1" d="M965.9,887.4h-1.5c-8.2,0-14.9,6.7-14.9,14.9v0c0,8.2,6.7,14.9,14.9,14.9h1.5c8.2,0,14.9-6.7,14.9-14.9v0
				C980.8,894.1,974.1,887.4,965.9,887.4z"/>
			<path class="st1" d="M1017.7,887.4h-1.5c-8.2,0-14.9,6.7-14.9,14.9v0c0,8.2,6.7,14.9,14.9,14.9h1.5c8.2,0,14.9-6.7,14.9-14.9v0
				C1032.6,894.1,1025.9,887.4,1017.7,887.4z"/>
		</g>
		<g>
			<rect x="682.6" y="589.1" class="st10" width="215.6" height="77.8"/>
			<polygon class="st11" points="919.7,589.1 755.3,589.1 641.2,439.1 805.6,439.1 			"/>
			<rect x="682.6" y="589.1" class="st12" width="215.6" height="17.9"/>
			<g>
				<polygon class="st13" points="755.3,589.1 755.3,666.9 547.5,666.9 547.5,589.1 527.1,589.1 641.2,439.1 				"/>
				<polygon class="st10" points="641.2,439.1 650.6,451.4 547.3,589.1 527.1,589.1 				"/>
			</g>
			<polygon class="st12" points="839.7,673.5 847.6,673.5 763.2,589.1 755.3,589.1 755.3,589.1 755.3,589.1 			"/>
			<polygon class="st12" points="996.1,673.5 1004,673.5 919.6,589.1 911.7,589.1 911.7,589.1 911.7,589.1 			"/>
			<polygon class="st12" points="451.3,673.5 535.7,589.1 535.7,589.1 535.7,589.1 527.8,589.1 443.4,673.5 			"/>
			<path class="st14" d="M805.6,439.1H641.2l96.7,127.1C836,551.6,805.6,439.1,805.6,439.1z"/>
			<path class="st13" d="M638.9,476.9"/>
			<path class="st12" d="M638.8,504.5c-0.1-0.8-12.7,113.8-33.5,162.4h67.1C651.4,618.5,638.8,503.8,638.8,504.5z"/>
			<path class="st12" d="M638.8,504.5c0,0,0,0.1,0,0.1c0,0-0.1,0.3-0.2,0.9C638.7,504.9,638.8,504.6,638.8,504.5z"/>
			<path class="st11" d="M706.9,666.9h-34.6c-20.4-47.3-32.9-158.1-33.5-162.2C639.6,508.7,661.2,620.8,706.9,666.9z"/>
			<path class="st11" d="M638.6,505.6c-1.4,11.5-13.8,115.7-33.4,161.3h-32.4C614.9,628.2,636.5,516.8,638.6,505.6z"/>
		</g>
		<path class="st9" d="M519.9,655.5H378.1c-5.7,0-10.4,4.7-10.4,10.4l0,0c0,5.7,4.7,10.4,10.4,10.4h141.7c5.7,0,10.4-4.7,10.4-10.4
			l0,0C530.3,660.1,525.6,655.5,519.9,655.5z"/>
		<path class="st13" d="M436.1,667.9c-12.1-1.2-22.3-10.1-28.6-20.4c-5.7-9.3-9-21.9,0.4-35.5c19-27.1,19.8-39,19.8-39
			s8.5,9.8,8.1,18.1c0,0,11-28.5,4.8-38.3c0,0,39.8,32.7,34.2,62.7c0,0,7.3-14.8,16.9-16.3c0,0-6.8,8.9-6.6,26.7
			C485.2,644.4,479.7,672.1,436.1,667.9z"/>
		<path class="st14" d="M439.5,668.6c-8.2-0.8-15.1-6.8-19.4-13.9c-3.9-6.3-6.1-14.9,0.3-24c12.8-18.4,13.4-26.4,13.4-26.4
			s5.8,6.6,5.5,12.3c0,0,7.5-19.3,3.2-26c0,0,27,22.2,23.2,42.5c0,0,4.9-10,11.4-11c0,0-4.6,6-4.5,18.1
			C472.8,652.6,469.1,671.4,439.5,668.6z"/>
		<path class="st15" d="M441.9,669.5c-5.5-0.5-10.2-4.6-13.1-9.4c-2.6-4.2-4.1-10,0.2-16.3c8.7-12.4,9.1-17.9,9.1-17.9
			s3.9,4.5,3.7,8.3c0,0,5.1-13.1,2.2-17.6c0,0,18.2,15,15.7,28.7c0,0,3.3-6.8,7.7-7.4c0,0-3.1,4.1-3,12.2
			C464.4,658.7,461.9,671.4,441.9,669.5z"/>
		<circle class="st13" cx="408.7" cy="584.4" r="3.7"/>
		<circle class="st13" cx="419.6" cy="552.9" r="2.7"/>
		<circle class="st13" cx="446.3" cy="535.8" r="3.2"/>
		<circle class="st13" cx="473.3" cy="558.2" r="3.2"/>
		<circle class="st13" cx="499.3" cy="602.3" r="1.4"/>
		<circle class="st13" cx="389.9" cy="610.3" r="2.5"/>
		<circle class="st13" cx="514.2" cy="629.1" r="2.7"/>
		<path class="st5" d="M1175.2,330.4c-3.5-11.5-14.2-19.8-26.8-19.8c-5.1,0-9.9,1.4-14,3.8c-3.5-11.5-14.2-19.8-26.8-19.8
			c-3.7,0-7.3,0.7-10.5,2.1c-3.5-11.5-14.2-19.8-26.8-19.8c-1.3,0-2.5,0.1-3.8,0.3c-3.3-13.3-15.4-23.1-29.7-23.1
			c-16.1,0-29.4,12.5-30.5,28.3c-1.5-0.3-3.1-0.5-4.7-0.5c-11.2,0-20.6,7.6-23.2,18c0,0,0,0-0.1,0c-9.7,0-18,5.5-22.1,13.6
			c-4.9-4.1-11.1-6.6-18-6.6c-14,0-25.6,10.3-27.7,23.7H1175.2z"/>
		<path class="st5" d="M433.8,379.5c-2.5-8.8-10.6-15.3-20.2-15.3c-2.9,0-5.6,0.6-8.1,1.6c-2.9-8.1-10.7-13.9-19.8-13.9
			c-2.2,0-4.4,0.4-6.4,1c-1.1-9.7-9.4-17.2-19.4-17.2c-3.8,0-7.4,1.1-10.4,3c-4.1-8.9-13.1-15.1-23.5-15.1
			c-14.3,0-25.9,11.6-25.9,25.9c0,0.1,0,0.3,0,0.4c-2.3-0.9-4.8-1.5-7.5-1.5c-9.3,0-17.1,6.4-19.1,15.1c-2.9-1.4-6.2-2.3-9.7-2.3
			c-10.9,0-19.9,7.9-21.7,18.2H433.8z"/>
		<path class="st5" d="M865.4,236.1c-3.7-13.5-16-23.5-30.7-23.5c-2,0-4,0.2-5.8,0.5c-4.6-11.9-16.2-20.4-29.7-20.4
			c-6.8,0-13,2.1-18.2,5.7c-5.1-5.7-12.5-9.4-20.8-9.4c-2.8-14.4-15.4-25.2-30.6-25.2c-15.6,0-28.5,11.5-30.8,26.5
			c-2.6-0.9-5.4-1.5-8.3-1.5c-13.2,0-23.9,10.7-23.9,23.9c0,0.6,0,1.1,0.1,1.7c-0.1,0-0.1,0-0.2,0c-6.6,0-12.6,2-17.7,5.4
			c-4.4-4.9-10.7-7.9-17.8-7.9c-13.2,0-23.9,10.7-23.9,23.9c0,0.1,0,0.2,0,0.2H865.4z"/>
		<path class="st5" d="M718,307.8l1.6,4.5c1.3,3.6,4.1,6.4,7.7,7.7l4.5,1.6l-4.5,1.6c-3.6,1.3-6.4,4.1-7.7,7.7l-1.6,4.5l-1.6-4.5
			c-1.3-3.6-4.1-6.4-7.7-7.7l-4.5-1.6l4.5-1.6c3.6-1.3,6.4-4.1,7.7-7.7L718,307.8z"/>
		<path class="st5" d="M1096.8,389.1l1.4,3.8c1.1,3,3.5,5.4,6.5,6.5l3.8,1.4l-3.8,1.4c-3,1.1-5.4,3.5-6.5,6.5l-1.4,3.8l-1.4-3.8
			c-1.1-3-3.5-5.4-6.5-6.5l-3.8-1.4l3.8-1.4c3-1.1,5.4-3.5,6.5-6.5L1096.8,389.1z"/>
		<path class="st5" d="M931.6,204.9l1.3,3.5c1,2.8,3.2,5,6,6l3.5,1.3l-3.5,1.3c-2.8,1-5,3.2-6,6l-1.3,3.5l-1.3-3.5c-1-2.8-3.2-5-6-6
			l-3.5-1.3l3.5-1.3c2.8-1,5-3.2,6-6L931.6,204.9z"/>
		<path class="st5" d="M281.6,479.4l1.3,3.6c1,2.8,3.3,5.1,6.1,6.1l3.6,1.3l-3.6,1.3c-2.8,1-5.1,3.3-6.1,6.1l-1.3,3.6l-1.3-3.6
			c-1-2.8-3.3-5.1-6.1-6.1l-3.6-1.3l3.6-1.3c2.8-1,5.1-3.3,6.1-6.1L281.6,479.4z"/>
		<path class="st5" d="M392.4,286l1,2.7c0.8,2.1,2.5,3.8,4.6,4.6l2.7,1l-2.7,1c-2.1,0.8-3.8,2.5-4.6,4.6l-1,2.7l-1-2.7
			c-0.8-2.1-2.5-3.8-4.6-4.6l-2.7-1l2.7-1c2.1-0.8,3.8-2.5,4.6-4.6L392.4,286z"/>
		<circle class="st5" cx="690" cy="406.7" r="3"/>
		<circle class="st5" cx="773.3" cy="284" r="3.7"/>
		<circle class="st5" cx="977.3" cy="258.7" r="2.3"/>
		<circle class="st5" cx="1054.7" cy="376.7" r="1.7"/>
		<circle class="st5" cx="1100" cy="450" r="2.3"/>
		<circle class="st5" cx="983.7" cy="404.3" r="2.7"/>
		<circle class="st5" cx="961.7" cy="195" r="1.3"/>
		<circle class="st5" cx="821" cy="142.3" r="3.3"/>
		<circle class="st5" cx="672.7" cy="142.7" r="1"/>
		<circle class="st5" cx="587.7" cy="201" r="1.3"/>
		<circle class="st5" cx="596.3" cy="335.7" r="2.7"/>
		<circle class="st5" cx="403.2" cy="410.8" r="1.8"/>
		<circle class="st5" cx="296.2" cy="407.8" r="2.8"/>
		<circle class="st5" cx="318.8" cy="439.8" r="3.2"/>
		<circle class="st5" cx="276" cy="569.8" r="2.2"/>
		<circle class="st5" cx="257.2" cy="520.8" r="2.2"/>
		<circle class="st5" cx="693" cy="356.3" r="1.3"/>
		<circle class="st5" cx="698.7" cy="277.3" r="1"/>
		<circle class="st5" cx="851" cy="247" r="0.7"/>
		<circle class="st5" cx="1017" cy="228.3" r="0.7"/>
		<circle class="st5" cx="1073.7" cy="359" r="1.3"/>
		<circle class="st5" cx="1124" cy="363.3" r="1.7"/>
		<circle class="st5" cx="648" cy="413.3" r="1"/>
	</g>
</g>
</svg>
